<svg width="245" height="137" viewBox="0 0 245 137" fill="none" xmlns="http://www.w3.org/2000/svg">
<path d="M28.0263 136.678C9.0925 136.678 0.10375 126.924 0.10375 107.607C0.10375 76.8162 39.6925 40.2875 39.6925 15.8075C39.6925 6.81875 34.3375 6.43624 33.5725 6.24499H33.3813V0.889992H84.6363L84.8275 6.24499C76.9863 6.24499 75.0738 7.96624 78.5163 19.4412L108.16 115.831C111.794 127.497 114.471 129.027 122.313 129.027V134.574H71.0575V129.027C79.09 129.027 80.8113 127.306 76.9863 115.257L59.2 56.9262C59.2 56.9262 56.14 47.3637 52.1238 47.3637C48.2988 47.3637 46.96 50.9975 46.96 58.6475C46.96 74.5212 60.3475 83.7012 60.3475 106.651C60.3475 122.907 46.96 136.678 28.0263 136.678ZM43.9 14.0862C43.9 35.8887 20.7588 64.7675 20.7588 91.7337C20.7588 102.635 26.1137 106.077 33.3813 106.077C43.9 106.077 45.2388 95.1762 45.2388 88.4825C45.2388 78.7287 41.9875 69.5487 41.9875 58.4562C41.9875 47.555 45.0475 43.1562 52.315 43.1562C53.2713 43.1562 54.2275 43.3475 55.1838 43.73L47.9163 20.015C46.195 14.4688 44.665 11.2175 42.7525 9.11374C43.3263 10.4525 43.9 11.9825 43.9 14.0862ZM123.944 128.454C131.785 128.454 134.845 126.732 141.73 114.684L202.93 6.24499H177.685C145.364 6.24499 134.272 17.3375 134.272 52.145H128.725V0.124991H244.24V5.67125C236.399 5.67125 233.339 7.39249 226.645 18.8675L165.254 127.88H185.909C218.422 127.88 229.323 116.787 229.323 81.98H234.869V134H123.944V128.454Z" fill="black"/>
</svg>
