<svg width="374" height="373" viewBox="0 0 374 373" fill="none" xmlns="http://www.w3.org/2000/svg">
<rect x="12.417" y="5.42114" width="349.926" height="353.533" fill="white"/>
<path d="M347.83 0C362.097 0 373.662 11.5661 373.662 25.8311V346.933C373.662 361.198 362.095 372.765 347.83 372.765H26.7285C12.4614 372.764 0.897461 361.198 0.897461 346.933V25.8311C0.897718 11.5641 12.4637 0.000185265 26.7285 0H347.83ZM98.2363 102.905H55.085V135.783H104.403L131.116 320.721H242.081L268.794 135.783H318.112V102.905H274.957L281.121 51.5342H246.188L240.023 102.905H133.17L127.005 51.5342H92.0723L98.2363 102.905ZM220.753 235.754L211.257 285.788H161.94L153.757 235.754H220.753Z" fill="url(#paint0_linear_2489_1250)"/>
<defs>
<linearGradient id="paint0_linear_2489_1250" x1="0.896822" y1="186.382" x2="373.661" y2="186.382" gradientUnits="userSpaceOnUse">
<stop offset="0.0103" stop-color="#65A30D"/>
<stop offset="0.5464" stop-color="#74B711"/>
<stop offset="0.9944" stop-color="#84CC16"/>
</linearGradient>
</defs>
</svg>
