<svg width="1024" height="1024" viewBox="0 0 1024 1024" fill="none" xmlns="http://www.w3.org/2000/svg">
<path d="M797.149 135.751C704.584 86.2465 583.514 139.957 515.488 401.54C447.462 663.123 674.232 394.214 777.814 371.249C894.471 325.944 889.713 185.255 797.149 135.751Z" fill="url(#paint0_linear_435_688)" stroke="#F6CFD4" stroke-width="0.682333"/>
<path d="M954.702 353.064C899.315 266.824 770.117 257.21 586.658 453.369C403.199 649.529 725.829 520.936 825.352 549.184C946.751 564.065 1010.09 439.303 954.702 353.064Z" fill="url(#paint1_linear_435_688)" stroke="#F6CFD4" stroke-width="0.682333"/>
<path d="M957.327 658.361C969.23 556.611 875.392 467.442 608.946 503.124C342.5 538.806 673.708 643.432 732.762 728.243C817.225 816.553 945.424 760.111 957.327 658.361Z" fill="url(#paint2_linear_435_688)" stroke="#F6CFD4" stroke-width="0.682333"/>
<path d="M771.238 905.133C850.93 840.59 846.126 711.35 630.43 551.177C414.733 391.003 578.649 696.758 561.601 798.632C560.294 920.722 691.546 969.675 771.238 905.133Z" fill="url(#paint3_linear_435_688)" stroke="#F6CFD4" stroke-width="0.682333"/>
<path d="M573.292 964.107C670.894 932.462 712.934 810.131 569.301 583.284C425.668 356.437 468.574 700.568 415.993 789.523C370.826 902.989 475.69 995.753 573.292 964.107Z" fill="url(#paint4_linear_435_688)" stroke="#F6CFD4" stroke-width="0.682333"/>
<path d="M297.821 928.176C394.817 961.627 502.208 889.284 524.505 621.848C546.801 354.411 373.323 654.863 277.665 694.229C173.128 757.616 200.825 894.725 297.821 928.176Z" fill="url(#paint5_linear_435_688)" stroke="#F6CFD4" stroke-width="0.682333"/>
<path d="M132.523 777.16C203.024 851.6 331.757 837.038 475.43 610.217C619.103 383.395 326.092 569.692 223.041 560.432C100.988 568.37 62.0226 702.72 132.523 777.16Z" fill="url(#paint6_linear_435_688)" stroke="#F6CFD4" stroke-width="0.682333"/>
<path d="M57.31 558.112C83.2796 657.219 203.172 706.23 438.389 576.289C673.606 446.348 326.958 469.087 241.056 411.512C130.21 359.899 31.3403 459.006 57.31 558.112Z" fill="url(#paint7_linear_435_688)" stroke="#F6CFD4" stroke-width="0.682333"/>
<path d="M91.1544 326.697C67.3729 426.349 150.081 525.895 418.88 521.671C687.68 517.446 371.059 374.746 322.382 283.604C248.884 186.01 114.936 227.044 91.1544 326.697Z" fill="url(#paint8_linear_435_688)" stroke="#F6CFD4" stroke-width="0.682333"/>
<path d="M253.363 137.959C178.512 208.038 192.585 336.602 419.23 480.927C645.875 625.252 460.422 332.014 470.11 229.182C462.645 107.313 328.215 67.8796 253.363 137.959Z" fill="url(#paint9_linear_435_688)" stroke="#F6CFD4" stroke-width="0.682333"/>
<path d="M524.119 50.3764C422.272 62.9417 357.724 175.076 455.583 425.025C552.919 673.636 576.538 332.66 644.242 252.871C644.994 251.985 645.671 251.092 646.288 250.107C710.444 147.693 625.471 37.872 524.119 50.3764Z" fill="url(#paint10_linear_435_688)" stroke="#F6CFD4" stroke-width="0.682333"/>
<g filter="url(#filter0_f_435_688)">
<ellipse cx="333.551" cy="345.005" rx="41.1664" ry="40.9534" fill="#D7408E"/>
</g>
<defs>
<filter id="filter0_f_435_688" x="206.605" y="218.272" width="253.893" height="253.467" filterUnits="userSpaceOnUse" color-interpolation-filters="sRGB">
<feFlood flood-opacity="0" result="BackgroundImageFix"/>
<feBlend mode="normal" in="SourceGraphic" in2="BackgroundImageFix" result="shape"/>
<feGaussianBlur stdDeviation="42.89" result="effect1_foregroundBlur_435_688"/>
</filter>
<linearGradient id="paint0_linear_435_688" x1="698.571" y1="116.965" x2="675.455" y2="523.592" gradientUnits="userSpaceOnUse">
<stop stop-color="#F7C7E0"/>
<stop offset="0.895" stop-color="#D7408E"/>
</linearGradient>
<linearGradient id="paint1_linear_435_688" x1="879.459" y1="290.78" x2="665.365" y2="634.495" gradientUnits="userSpaceOnUse">
<stop stop-color="#F7C7E0"/>
<stop offset="0.895" stop-color="#D7408E"/>
</linearGradient>
<linearGradient id="paint2_linear_435_688" x1="938.662" y1="562.581" x2="554.778" y2="692.831" gradientUnits="userSpaceOnUse">
<stop stop-color="#F7C7E0"/>
<stop offset="0.895" stop-color="#D7408E"/>
</linearGradient>
<linearGradient id="paint3_linear_435_688" x1="824.872" y1="823.558" x2="459.386" y2="648.334" gradientUnits="userSpaceOnUse">
<stop stop-color="#F7C7E0"/>
<stop offset="0.895" stop-color="#D7408E"/>
</linearGradient>
<linearGradient id="paint4_linear_435_688" x1="652.708" y1="907.22" x2="374.821" y2="612.491" gradientUnits="userSpaceOnUse">
<stop stop-color="#F7C7E0"/>
<stop offset="0.895" stop-color="#D7408E"/>
</linearGradient>
<linearGradient id="paint5_linear_435_688" x1="395.539" y1="930.543" x2="351.112" y2="528.24" gradientUnits="userSpaceOnUse">
<stop stop-color="#F7C7E0"/>
<stop offset="0.895" stop-color="#D7408E"/>
</linearGradient>
<linearGradient id="paint6_linear_435_688" x1="218.066" y1="824.373" x2="364.471" y2="446.94" gradientUnits="userSpaceOnUse">
<stop stop-color="#F7C7E0"/>
<stop offset="0.895" stop-color="#D7408E"/>
</linearGradient>
<linearGradient id="paint7_linear_435_688" x1="109.581" y1="640.564" x2="419.585" y2="379.7" gradientUnits="userSpaceOnUse">
<stop stop-color="#F7C7E0"/>
<stop offset="0.895" stop-color="#D7408E"/>
</linearGradient>
<linearGradient id="paint8_linear_435_688" x1="98.4311" y1="424.001" x2="495.004" y2="339.76" gradientUnits="userSpaceOnUse">
<stop stop-color="#F7C7E0"/>
<stop offset="0.895" stop-color="#D7408E"/>
</linearGradient>
<linearGradient id="paint9_linear_435_688" x1="205.726" y1="223.162" x2="582.882" y2="371.714" gradientUnits="userSpaceOnUse">
<stop stop-color="#F7C7E0"/>
<stop offset="0.895" stop-color="#D7408E"/>
</linearGradient>
<linearGradient id="paint10_linear_435_688" x1="435.325" y1="91.1722" x2="652.137" y2="433.185" gradientUnits="userSpaceOnUse">
<stop stop-color="#F7C7E0"/>
<stop offset="0.895" stop-color="#D7408E"/>
</linearGradient>
</defs>
</svg>
